<svg xmlns="http://www.w3.org/2000/svg" viewBox="0 0 878 660" width="878" height="660">
	<defs>
		<linearGradient id="grd1" gradientUnits="userSpaceOnUse"  x1="368.5" y1="233.5" x2="867" y2="732">
			<stop offset="0" stop-color="#ffffff"  />
			<stop offset="1" stop-color="#ffffff" stop-opacity="0" />
		</linearGradient>
	</defs>
	<style>
		tspan { white-space:pre }
		.shp0 { opacity: 0.102;fill: url(#grd1) } 
		.shp1 { fill: #f0f0f5 } 
		.shp2 { fill: #965450 } 
		.shp3 { fill: #76413b } 
		.shp4 { fill: #051f38 } 
		.shp5 { fill: #6633cc } 
		.shp6 { opacity: 0.2;fill: #352c38 } 
		.shp7 { fill: #34cb79 } 
		.shp8 { opacity: 0.102;fill: #161826 } 
		.shp9 { fill: #23173b } 
		.shp10 { fill: #322153 } 
		.shp11 { fill: #ffffff } 
		.shp12 { fill: #1f2733 } 
		.shp13 { fill: #091e1d } 
		.shp14 { fill: #041523 } 
		.shp15 { fill: #ffb39f } 
		.shp16 { fill: #e09b8d } 
		.shp17 { fill: #dd9078 } 
		.shp18 { fill: #e1edff } 
		.shp19 { fill: #c0d5ff } 
		.shp20 { fill: #b1c5e8 } 
		.shp21 { fill: #1c0c3b } 
	</style>
	<path id="Layer" fill-rule="evenodd" class="shp0" d="M867.08 740L0.27 740C-10.71 592.2 135.01 499.06 214.18 448.46C224.47 441.89 233.63 436.03 241.18 430.87C274.26 408.23 298.8 358.8 324.89 306.23C372.97 209.37 426.34 101.85 548.23 131.59C655.39 157.8 816.45 269.33 877 436.18L877 713.3C874 722.13 870.69 731.03 867.08 740Z" />
	<path id="Layer" class="shp1" d="M476 545C350.08 545 248 555.3 248 568C248 580.7 350.08 591 476 591C601.92 591 704 580.7 704 568C704 555.3 601.92 545 476 545Z" />
	<path id="Layer" class="shp2" d="M682.38 478.82C682.38 478.82 650.03 571.06 646.57 571.06C643.1 571.06 573.78 592.96 635.01 565.29C635.01 565.29 641.95 464.98 652.34 460.37C662.74 455.76 682.38 478.82 682.38 478.82Z" />
	<path id="Layer" class="shp3" d="M658.12 545.23C668.63 517.9 682.38 478.82 682.38 478.82C682.38 478.82 662.74 455.76 652.34 460.37C645.64 463.37 640.33 506.49 637.44 536.47C644.37 539.23 651.19 542.23 658.12 545.23Z" />
	<path id="Layer" class="shp4" d="M624.96 570.25C624.96 570.25 622.3 576.36 647.72 569.9L646.57 573.36C646.57 573.36 574.94 590.2 624.96 570.25Z" />
	<path id="Layer" class="shp2" d="M662.74 439.73C662.74 439.73 712.76 523.78 710.57 526.44C708.37 529.09 680.65 596.19 698.67 531.51C698.67 531.51 626.12 461.75 629.24 450.8C632.47 439.96 662.74 439.73 662.74 439.73Z" />
	<path id="Layer" class="shp4" d="M696.13 542.35C696.13 542.35 699.13 548.34 710.45 524.71L712.42 527.82C712.3 527.82 679.26 593.54 696.13 542.35Z" />
	<path id="Layer" class="shp3" d="M691.85 489.77C678.45 466.13 662.74 439.73 662.74 439.73C662.74 439.73 632.47 439.96 629.24 450.8C627.16 457.83 656.96 489.65 678.11 511.1C678.22 511.22 686.42 502.11 691.85 489.77Z" />
	<path id="Layer" class="shp5" d="M694.51 313.36C694.51 313.36 663.89 279.35 645.99 300.68C628.08 322.01 600.35 392.34 604.4 421.17C606.82 438.12 623.11 456.22 636.17 468.32L625.19 530.13C625.19 530.13 670.25 542.23 667.36 542.23C665.63 542.23 711.84 418.29 716.46 379.08C721.08 339.88 694.51 313.36 694.51 313.36Z" />
	<path id="Layer" class="shp6" d="M671.06 320.97C679.61 320.86 688.97 319.71 697.17 316.36C695.55 314.4 694.51 313.36 694.51 313.36C694.51 313.36 663.9 279.35 645.99 300.68C643.22 304.02 640.21 308.41 637.21 313.71C647.26 319.24 659.97 321.2 671.06 320.97Z" />
	<path id="Layer" class="shp6" d="M625.19 337.46C612.49 366.4 601.74 402.37 604.4 421.05C606.71 437.89 622.88 455.87 635.94 467.98C640.56 436.62 648.99 393.04 654.08 367.9C641.48 360.75 631.09 350.49 625.19 337.46Z" />
	<path id="Layer" class="shp2" d="M606.13 245.34L587.65 281.08C587.65 281.08 555.3 263.21 550.68 263.21C546.05 263.21 524.11 263.78 534.5 268.4C534.5 268.4 529.88 271.28 535.08 272.43C535.08 272.43 530.46 276.47 536.24 277.04L549.52 276.47C549.52 276.47 576.09 300.68 589.38 304.14C602.66 307.6 624.04 262.63 624.04 262.63L606.13 245.34Z" />
	<path id="Layer" class="shp3" d="M609.13 270.93C612.02 271.97 615.03 273.01 618.03 274.05C621.73 267.59 624.04 262.52 624.04 262.52L606.13 245.22L595.96 264.82C600.01 267.36 604.51 269.32 609.13 270.93Z" />
	<path id="Layer" class="shp7" d="M629.24 228.04C629.24 228.04 611.91 225.16 605.55 234.38C599.2 243.61 596.31 258.6 596.31 258.6L621.15 270.7L629.24 228.04Z" />
	<path id="Layer" class="shp8" d="M619.65 260.67C613.29 255.72 606.01 249.49 601.28 241.99C597.81 250.06 596.2 258.48 596.2 258.48L621.03 270.59L622.54 262.75C621.61 262.17 620.57 261.48 619.65 260.67Z" />
	<path id="Layer" class="shp9" d="M507.7 258.94C508.39 260.79 507.35 262.86 505.5 263.56L491.87 268.51C490.02 269.21 487.94 268.17 487.25 266.32L481.82 251.22C481.13 249.37 482.17 247.3 484.02 246.61L497.65 241.65C499.5 240.96 501.58 241.99 502.27 243.84L507.7 258.94Z" />
	<path id="Layer" fill-rule="evenodd" class="shp10" d="M537.16 256.29L550.33 292.84C552.99 300.34 549.17 308.64 541.66 311.29L498.92 326.62C491.41 329.27 483.09 325.47 480.43 317.98L467.26 281.43C464.61 273.93 468.42 265.63 475.93 262.98L518.67 247.64C526.18 244.88 534.39 248.8 537.16 256.29ZM531.73 256.29C530.69 253.29 527.34 251.79 524.34 252.83L542.71 303.56C545.71 302.53 547.21 299.18 546.17 296.19L531.73 256.29Z" />
	<path id="Layer" class="shp5" d="M504.93 243.61C505.5 245.22 504.69 247.07 503.08 247.64L483.67 254.68C482.05 255.25 480.2 254.45 479.63 252.83L478.01 248.34C477.43 246.72 478.24 244.88 479.86 244.3L499.26 237.27C500.88 236.69 502.73 237.5 503.31 239.11L504.93 243.61Z" />
	<path id="Layer" class="shp2" d="M532.19 265.51C532.19 265.51 539.47 262.98 540.74 264.48C541.9 265.86 534.62 267.94 534.96 268.05C535.2 268.17 542.82 266.44 543.51 268.05C544.21 269.67 535.43 272.55 535.43 272.55C535.43 272.55 543.74 270.24 544.32 271.97C544.9 273.7 535.66 276.24 535.66 276.24L535.2 272.43L534.62 268.05L532.19 265.51Z" />
	<path id="Layer" class="shp2" d="M542.47 263.56C542.47 263.56 536.81 259.75 536.81 258.48C536.7 257.1 551.83 263.44 551.83 263.44L542.47 263.56Z" />
	<path id="Layer" class="shp3" d="M654.08 225.16C652.92 227.24 658.58 178.93 658.58 178.93L632.36 196.57C632.36 196.57 634.67 227.47 631.78 227.58C630.62 227.58 626.12 229.31 621.15 231.16C622.3 236.92 624.62 238.19 626.58 243.72C641.25 243.61 657.2 243.26 666.21 229.89C661.01 228.16 655.58 222.28 654.08 225.16Z" />
	<path id="Layer" class="shp7" d="M629.24 228.04L628.08 224.01L656.96 217.67L658.12 224.58C658.12 224.58 692.78 236.11 697.4 262.06C702.02 288 699.71 304.72 694.51 313.36C694.51 313.36 654.08 319.13 636.75 310.48C619.42 301.83 601.51 237.27 610.75 231.5C619.99 225.74 629.24 228.04 629.24 228.04Z" />
	<path id="Layer" class="shp8" d="M667.01 299.87C653.15 299.07 636.17 297.45 624.62 288.92C622.42 287.31 620.46 285.58 618.61 283.62C623.81 296.41 630.28 307.25 636.75 310.48C654.08 319.13 694.51 313.36 694.51 313.36C696.82 309.56 698.55 304.14 699.36 296.99C688.97 300.11 678.11 300.57 667.01 299.87Z" />
	<path id="Layer" class="shp2" d="M665.63 279.93L695.09 277.62C695.09 277.62 687.58 329.5 678.91 347.38C670.25 365.25 630.39 435.58 645.99 396.38C645.99 396.38 625.77 426.93 643.1 395.8C643.1 395.8 624.04 420.59 640.79 394.07C640.79 394.07 621.15 416.56 641.95 384.85C641.95 384.85 626.35 392.34 643.68 379.66L660.43 335.85L665.63 279.93Z" />
	<path id="Layer" class="shp3" d="M694.39 281.77C694.86 279.12 695.09 277.51 695.09 277.51L665.63 279.81L665.4 282.81C674.99 282.81 684.69 282.35 694.39 281.77Z" />
	<path id="Layer" class="shp4" d="M634.78 147.91C634.78 147.91 649.46 139.38 670.94 153.45C685.15 162.78 684.46 192.65 653.73 212.25C617.22 235.54 634.78 147.91 634.78 147.91Z" />
	<path id="Layer" class="shp2" d="M655.12 163.82C655.12 163.82 638.6 151.02 624.5 157.25C606.71 165.32 608.56 184.11 608.21 200.14C607.75 221.47 624.62 225.51 629.7 225.74C637.21 226.2 667.82 224.35 655.12 163.82Z" />
	<path id="Layer" class="shp2" d="M656.73 183.77C656.73 183.77 657.43 180.54 662.97 183.08C670.02 186.42 666.21 203.25 658.35 202.79C650.38 202.45 656.73 183.77 656.73 183.77Z" />
	<path id="Layer" class="shp4" d="M656.73 183.77C656.73 183.77 657.66 195.3 655 195.41C652.23 195.53 649.34 174.54 656.96 174.54C664.59 174.78 656.73 183.77 656.73 183.77Z" />
	<path id="Layer" class="shp7" d="M656.73 183.77C656.73 183.77 651.07 158.17 617.45 162.44C617.45 162.44 622.3 152.87 632.93 148.37C647.38 142.26 668.98 166.82 662.97 183.08C662.97 183.08 660.2 183.42 656.73 183.77Z" />
	<path id="Layer" class="shp4" d="M670.94 160.13C670.94 160.13 669.09 129.58 676.49 129.58C683.88 129.58 675.91 155.29 675.91 155.29C675.91 155.29 682.03 118.51 699.83 124.04C717.62 129.58 686.89 155.29 686.89 155.29C686.89 155.29 700.98 142.38 705.95 146.76C710.8 151.02 685.73 159.67 685.73 159.67C685.73 159.67 704.79 154.14 707.22 163.36C709.64 172.47 670.37 171.2 670.94 160.13Z" />
	<path id="Layer" class="shp4" d="M609.13 177.89C609.13 177.89 609.13 177.66 609.37 177.2C609.6 176.74 609.83 176.16 610.4 175.58C610.98 175.01 611.68 174.31 612.6 173.85C612.83 173.74 613.06 173.62 613.41 173.51C613.64 173.39 613.99 173.28 614.22 173.28C614.56 173.28 614.79 173.16 615.14 173.16L616.07 173.16C616.64 173.16 617.22 173.39 617.8 173.62C618.38 173.85 618.84 174.08 619.3 174.43C619.76 174.78 620.11 175.12 620.46 175.47C620.8 175.81 621.03 176.16 621.15 176.51C621.26 176.62 621.38 176.85 621.38 176.97C621.5 177.08 621.5 177.31 621.61 177.43C621.73 177.77 621.84 178 621.84 178.23C621.96 178.7 621.96 178.93 621.96 178.93C621.96 178.93 621.73 178.81 621.26 178.7C621.03 178.58 620.8 178.47 620.57 178.35C620.34 178.23 619.99 178.12 619.65 177.89C619.3 177.77 619.07 177.54 618.72 177.43C618.38 177.31 618.03 177.2 617.68 177.08C617.34 176.97 616.99 176.85 616.64 176.74C616.3 176.74 615.95 176.62 615.6 176.62L615.14 176.62C615.03 176.62 614.79 176.62 614.56 176.62C614.22 176.62 613.87 176.74 613.52 176.74C613.18 176.85 612.83 176.85 612.49 176.97C612.14 177.08 611.79 177.08 611.45 177.2C610.75 177.43 610.17 177.54 609.83 177.66C609.48 177.89 609.13 177.89 609.13 177.89Z" />
	<path id="Layer" class="shp11" d="M618.03 209.59C618.03 209.59 636.98 210.17 638.25 209.94C639.4 209.71 627.62 218.94 618.03 209.59Z" />
	<path id="Layer" class="shp12" d="M619.3 188.5C619.3 188.5 619.3 188.73 619.18 189.19C619.07 189.65 618.95 190.22 618.72 191.03C618.61 191.38 618.49 191.84 618.26 192.19C618.14 192.42 618.03 192.65 617.91 192.76C617.8 192.99 617.57 193.22 617.45 193.34C617.11 193.68 616.76 194.14 616.18 194.38C616.07 194.49 615.95 194.49 615.72 194.61L615.37 194.72C615.14 194.84 614.79 194.84 614.45 194.84C613.87 194.84 613.18 194.72 612.72 194.26C612.25 193.92 611.91 193.45 611.68 192.88C611.45 192.42 611.33 191.95 611.21 191.49C611.1 191.03 611.1 190.57 611.1 190.22C611.1 189.42 611.1 188.84 611.21 188.38C611.33 187.92 611.45 187.69 611.45 187.69C611.45 187.69 611.45 188.73 611.79 190.22C611.91 190.92 612.14 191.84 612.6 192.53C612.83 192.88 613.06 193.22 613.41 193.45C613.75 193.68 614.1 193.8 614.45 193.8C614.68 193.8 614.79 193.8 615.03 193.68L615.37 193.57C615.37 193.57 615.49 193.45 615.6 193.45C615.95 193.34 616.3 192.99 616.64 192.76C616.99 192.42 617.22 192.07 617.45 191.72C617.68 191.38 617.91 191.03 618.03 190.69C618.38 190 618.61 189.42 618.84 189.07C619.18 188.73 619.3 188.5 619.3 188.5Z" />
	<path id="Layer" class="shp12" d="M638.36 190C638.36 190 638.36 190.22 638.25 190.69C638.13 191.15 638.02 191.72 637.79 192.53C637.67 192.88 637.55 193.34 637.32 193.68C637.21 193.92 637.09 194.14 636.98 194.26C636.86 194.49 636.63 194.72 636.51 194.84C636.17 195.18 635.82 195.64 635.24 195.88C635.13 195.99 635.01 195.99 634.78 196.11L634.43 196.22C634.2 196.34 633.86 196.34 633.51 196.34C632.93 196.34 632.24 196.22 631.78 195.76C631.32 195.41 630.97 194.95 630.74 194.38C630.51 193.92 630.39 193.45 630.28 192.99C630.16 192.53 630.16 192.07 630.16 191.72C630.16 190.92 630.16 190.34 630.28 189.88C630.39 189.42 630.51 189.19 630.51 189.19C630.51 189.19 630.51 190.22 630.85 191.72C630.97 192.42 631.2 193.34 631.66 194.03C631.89 194.38 632.13 194.72 632.47 194.95C632.82 195.18 633.16 195.3 633.51 195.3C633.74 195.3 633.86 195.3 634.09 195.18L634.43 195.07C634.43 195.07 634.55 194.95 634.67 194.95C635.01 194.84 635.36 194.49 635.71 194.26C636.05 193.92 636.28 193.57 636.51 193.22C636.75 192.88 636.98 192.53 637.09 192.19C637.44 191.49 637.67 190.92 637.9 190.57C638.25 190.22 638.36 190 638.36 190Z" />
	<path id="Layer" class="shp3" d="M659.39 199.56C659.74 199.1 659.97 198.76 660.2 198.3C660.43 197.83 660.54 197.37 660.66 196.91C660.66 196.68 660.66 196.45 660.66 196.22C660.66 196.11 660.54 195.99 660.54 195.99C660.54 195.88 660.43 195.76 660.31 195.76C660.2 195.64 660.2 195.64 660.08 195.53L659.85 195.3C659.74 195.18 659.62 195.18 659.5 195.18L659.16 195.07L658.93 194.95L658.93 194.72C658.58 193.45 658.47 192.3 658.35 191.03C658.23 190.46 658.23 189.76 658.35 189.19C658.35 188.5 658.47 187.92 658.7 187.23C658.81 186.88 659.04 186.54 659.39 186.31C659.74 186.07 660.2 185.84 660.54 185.96C661.01 185.96 661.24 186.07 661.59 186.19C661.93 186.31 662.28 186.42 662.51 186.65C662.74 186.88 663.09 187.11 663.2 187.34C663.43 187.57 663.55 187.92 663.66 188.15C663.89 188.73 664.01 189.42 663.89 190C663.78 189.42 663.66 188.84 663.32 188.26C663.2 188.03 662.97 187.8 662.74 187.57C662.51 187.34 662.28 187.23 662.05 187.11C661.82 187 661.59 186.88 661.24 186.88C661.01 186.88 660.66 186.77 660.43 186.77C659.97 186.77 659.74 187.11 659.62 187.57C659.27 188.61 659.39 189.76 659.39 190.92C659.5 192.07 659.62 193.34 659.85 194.49L659.62 194.15L659.97 194.38C660.08 194.49 660.2 194.49 660.31 194.61L660.66 194.84C660.78 194.95 660.89 195.07 661.01 195.18C661.12 195.3 661.24 195.41 661.24 195.64C661.35 195.76 661.35 195.99 661.35 196.11C661.47 196.45 661.35 196.68 661.35 197.03C661.24 197.6 660.89 198.07 660.54 198.53C660.2 198.87 659.74 199.33 659.39 199.56Z" />
	<path id="Layer" class="shp3" d="M621.03 204.41C620.46 204.52 619.99 204.52 619.53 204.52C619.07 204.52 618.61 204.41 618.26 204.29C617.8 204.18 617.45 203.95 617.11 203.83C616.88 203.72 616.76 203.6 616.53 203.49C616.3 203.37 616.18 203.25 615.95 203.14L615.26 202.56L615.37 202.1C616.53 198.76 617.68 195.53 618.84 192.3C619.99 189.07 621.26 185.73 622.54 182.5C621.73 185.84 620.8 189.3 619.99 192.65C619.07 195.99 618.15 199.33 617.22 202.68L616.76 201.64C616.99 201.64 617.22 201.75 617.45 201.75C617.68 201.75 617.91 201.87 618.03 201.99C618.38 202.1 618.84 202.33 619.18 202.56C619.53 202.79 619.88 203.14 620.23 203.49C620.46 203.6 620.8 203.95 621.03 204.41Z" />
	<path id="Layer" class="shp4" d="M627.85 176.5C627.85 176.5 627.97 176.16 628.31 175.81C628.54 175.58 628.66 175.35 629 175.01C629.35 174.78 629.58 174.43 630.04 174.2C630.39 173.97 630.85 173.62 631.43 173.39C631.89 173.16 632.47 172.93 633.05 172.7C633.63 172.58 634.32 172.35 635.01 172.35C635.36 172.35 635.71 172.35 636.05 172.35L637.09 172.47C637.79 172.47 638.48 172.82 639.06 172.93C639.63 173.16 640.21 173.51 640.79 173.74C641.37 174.08 641.83 174.43 642.18 174.78C642.64 175.12 642.98 175.58 643.22 175.93C643.56 176.27 643.79 176.62 644.02 176.97C644.25 177.31 644.37 177.66 644.49 177.89C644.72 178.35 644.83 178.7 644.83 178.7C644.83 178.7 644.49 178.58 644.02 178.35C643.79 178.23 643.45 178.12 643.1 177.89C642.75 177.66 642.41 177.54 641.95 177.43C641.6 177.31 641.14 177.08 640.67 176.85C640.21 176.74 639.75 176.5 639.29 176.39C638.83 176.27 638.36 176.16 637.9 176.04C637.44 176.04 636.98 175.81 636.4 175.81L635.71 175.7L635.01 175.7C634.55 175.7 633.97 175.7 633.51 175.7C633.05 175.7 632.59 175.7 632.13 175.81C631.66 175.81 631.2 175.93 630.74 175.93C629.93 176.04 629.12 176.16 628.66 176.27C628.2 176.5 627.85 176.5 627.85 176.5Z" />
	<path id="Layer" class="shp13" d="M611.91 570.83C611.91 574.98 608.56 578.43 604.4 578.55C600.24 578.55 596.77 575.21 596.66 571.06L596.31 546.61C596.31 542.46 599.66 539 603.82 538.89C607.98 538.89 611.45 542.23 611.56 546.38L611.91 570.83Z" />
	<path id="Layer" class="shp13" d="M505.5 572.1C505.5 576.25 502.15 579.7 498 579.82C493.84 579.82 490.37 576.48 490.25 572.33L489.91 547.88C489.91 543.73 493.26 540.27 497.42 540.16C501.58 540.16 505.04 543.5 505.16 547.65L505.5 572.1Z" />
	<path id="Layer" class="shp7" d="M603.36 553.41C603.47 562.87 595.85 570.6 586.38 570.71L515.21 571.52C505.74 571.63 498 564.02 497.88 554.57L490.25 392.92C490.14 383.47 497.76 375.74 507.24 375.63L589.84 374.59C599.31 374.47 607.05 382.08 607.17 391.54L603.36 553.41Z" />
	<path id="Layer" class="shp8" d="M606.71 407.79L607.05 391.77C606.94 382.31 599.2 374.7 589.73 374.82L507.12 375.86C497.65 375.97 490.02 383.7 490.14 393.15L490.95 409.18L606.71 407.79Z" />
	<path id="Layer" class="shp7" d="M620.8 387.73C620.8 390.38 618.72 392.46 616.07 392.57L481.13 394.19C478.47 394.19 476.39 392.11 476.27 389.46L476.04 372.4C476.04 369.75 478.12 367.67 480.78 367.55L615.72 365.94C618.38 365.94 620.46 368.02 620.57 370.67L620.8 387.73Z" />
	<path id="Layer" class="shp11" d="M549.17 435.12L564.89 425.67L561.07 435.46L549.17 435.12Z" />
	<path id="Layer" class="shp11" d="M543.28 420.25C543.28 420.25 544.55 420.25 546.52 423.24C548.48 426.24 552.87 434.31 552.87 434.31L560.84 430.74L562.69 427.63C562.69 427.63 559.23 420.71 556.45 420.25L543.28 420.25Z" />
	<path id="Layer" class="shp11" d="M538.89 422.32C538.89 422.32 541.32 419.67 543.28 421.05C545.25 422.44 548.71 428.2 548.71 428.2L543.05 438.12L532.88 432.47L538.89 422.32Z" />
	<path id="Layer" class="shp11" d="M556.34 447.46L557.15 465.67L550.33 457.72L556.34 447.46Z" />
	<path id="Layer" class="shp11" d="M572.28 449.3C572.28 449.3 571.7 450.45 568.12 450.8C564.54 451.15 555.3 451.15 555.3 451.15L554.6 459.91L556.45 463.02C556.45 463.02 564.19 463.37 565.93 461.06L572.28 449.3Z" />
	<path id="Layer" class="shp11" d="M572.4 444.46C572.4 444.46 573.67 447.8 571.47 448.95C569.39 449.99 562.58 450.22 562.58 450.22L556.45 440.54L566.27 434.2L572.4 444.46Z" />
	<path id="Layer" class="shp11" d="M542.47 447.23L526.3 438.69L536.7 436.85L542.47 447.23Z" />
	<path id="Layer" class="shp11" d="M532.88 460.02C532.88 460.02 532.19 458.99 533.69 455.76C535.2 452.53 539.82 444.57 539.82 444.57L532.65 439.62L529.07 439.73C529.07 439.73 524.91 446.3 525.95 448.84L532.88 460.02Z" />
	<path id="Layer" class="shp11" d="M536.93 462.56C536.93 462.56 533.35 461.87 533.58 459.56C533.69 457.14 536.93 451.26 536.93 451.26L548.37 450.92L548.83 462.56L536.93 462.56Z" />
	<path id="Layer" class="shp4" d="M301.25 525.17C301.25 525.17 298.71 565.87 296.51 566.67C288.08 569.56 224.42 585.7 284.61 558.6L282.99 528.97L301.25 525.17Z" />
	<path id="Layer" class="shp14" d="M298.59 556.76C300.09 544.42 301.25 525.17 301.25 525.17L282.99 528.97L284.5 555.38C289 556.64 294.2 556.76 298.59 556.76Z" />
	<path id="Layer" class="shp11" d="M259.08 572.79C257.23 577.28 290.5 568.75 296.51 566.67C296.63 566.56 296.86 566.33 297.09 565.75C289.58 567.83 266.82 573.02 259.08 572.79Z" />
	<path id="Layer" class="shp4" d="M340.18 522.98C340.18 522.98 343.53 563.68 345.84 564.37C354.39 567.14 418.28 582.01 357.51 556.07L358.55 526.44L340.18 522.98Z" />
	<path id="Layer" class="shp14" d="M343.53 554.45C341.8 542.23 340.18 522.98 340.18 522.98L358.55 526.44L357.63 552.84C353.12 554.22 347.92 554.34 343.53 554.45Z" />
	<path id="Layer" class="shp11" d="M383.39 569.79C385.35 574.28 351.85 566.33 345.84 564.37C345.61 564.37 345.5 564.02 345.26 563.45C352.77 565.52 375.65 570.25 383.39 569.79Z" />
	<path id="Layer" class="shp7" d="M351.39 303.22C351.39 303.22 368.02 437.31 364.67 545.81C364.67 545.81 344.8 551.34 339.6 547.31C335.1 521.59 335.68 471.55 328.97 434.43C322.62 399.38 320.08 370.67 320.08 370.67L318 368.36C318 368.36 304.37 537.85 301.36 550.76C284.15 554.8 278.72 550.07 278.72 550.07C278.72 550.07 270.86 338.04 275.71 303.79C281.95 259.06 351.39 303.22 351.39 303.22Z" />
	<path id="Layer" class="shp8" d="M354.39 331C352.66 313.71 351.27 303.33 351.27 303.33C351.27 303.33 281.95 259.17 275.6 303.91C275.02 308.06 274.67 314.86 274.33 323.51C279.53 326.39 344.45 335.62 354.39 331Z" />
	<path id="Layer" class="shp8" d="M318.81 366.98C319.62 376.09 323.77 405.49 328.97 434.43C335.68 471.67 335.1 521.59 339.6 547.31C344.8 551.34 364.67 545.81 364.67 545.81C366.64 479.05 361.21 402.61 356.59 353.72C345.61 360.64 331.63 363.98 318.81 366.98Z" />
	<path id="Layer" class="shp15" d="M324.7 185.96C324.81 171.89 325.86 153.33 325.86 153.33L298.13 145.72C298.13 145.72 299.05 170.86 299.86 186.19C287.27 190.46 272.94 198.53 272.94 198.53L325.28 211.79L343.88 193.8C343.88 193.8 334.52 189.07 324.7 185.96Z" />
	<path id="Layer" class="shp16" d="M324.7 185.96C324.81 171.89 325.86 153.33 325.86 153.33L298.13 145.72C298.13 145.72 299.05 170.86 299.86 186.19C287.27 190.46 272.94 198.53 272.94 198.53L325.28 211.79L350 190.57C350 190.57 334.63 184.81 324.7 185.96Z" />
	<path id="Layer" class="shp15" d="M295.7 119.09C295.7 119.09 302.98 95.57 322.16 99.25C341.34 102.94 344.11 127.96 346.54 144.8C348.96 161.75 343.53 176.97 328.51 178.81C315.46 180.43 292.7 177.89 295.7 119.09Z" />
	<path id="Layer" class="shp15" d="M296.63 138.8C296.63 138.8 295.47 135.69 290.73 139.15C284.73 143.53 290.85 159.67 298.13 157.94C305.41 156.21 296.63 138.8 296.63 138.8Z" />
	<path id="Layer" class="shp4" d="M289.93 105.6C290.39 105.48 299.4 104.79 293.39 105.37C298.94 111.36 298.36 112.86 305.98 114.24C310.03 126.7 302.06 134.19 302.06 134.19L304.25 149.18L298.47 149.76C298.47 149.76 298.59 139.38 294.2 138.46C289.81 137.53 288.54 142.84 288.54 142.84C279.41 131.31 270.17 108.71 289.93 105.6Z" />
	<path id="Layer" class="shp4" d="M342.26 97.18C345.96 88.07 339.72 80 339.72 80C340.76 83.34 340.3 86.46 339.26 88.99C338.56 86.46 337.29 83.69 334.98 80.92C334.98 80.92 335.68 90.15 323.08 88.99C310.49 87.84 288.42 89.57 287.5 109.06C286.46 128.54 305.29 114.36 305.29 114.36C305.29 114.36 342.84 124.85 348.27 94.64L342.26 97.18Z" />
	<path id="Layer" class="shp4" d="M324.47 130.85C324.47 130.85 324.12 130.85 323.66 130.73C323.08 130.62 322.39 130.5 321.58 130.39C321.12 130.27 320.77 130.27 320.31 130.27C319.85 130.16 319.39 130.16 318.92 130.16C318.46 130.16 318 130.16 317.42 130.16C317.19 130.16 316.96 130.16 316.73 130.16L316.04 130.27C315.57 130.27 315.11 130.39 314.53 130.5C314.07 130.62 313.61 130.73 313.15 130.85C312.69 130.96 312.22 131.19 311.76 131.31C311.3 131.42 310.95 131.65 310.49 131.77C310.14 131.89 309.68 132 309.45 132.23C309.1 132.35 308.87 132.46 308.64 132.58C308.18 132.81 307.83 132.92 307.83 132.92C307.83 132.92 307.95 132.58 308.18 132.12C308.3 131.89 308.41 131.54 308.64 131.19C308.87 130.85 309.1 130.5 309.45 130.16C309.8 129.81 310.03 129.35 310.49 129C310.95 128.66 311.41 128.31 311.99 127.97C312.57 127.73 313.15 127.39 313.73 127.16C314.42 126.93 315 126.81 315.69 126.7L316.73 126.58C317.07 126.58 317.42 126.58 317.77 126.7C318.12 126.7 318.46 126.81 318.69 126.81C319.04 126.93 319.27 126.93 319.62 127.04C320.19 127.27 320.77 127.39 321.23 127.73C321.7 127.97 322.16 128.31 322.62 128.54C322.97 128.77 323.31 129.12 323.66 129.35C323.89 129.58 324.12 129.93 324.35 130.04C324.24 130.5 324.47 130.85 324.47 130.85Z" />
	<path id="Layer" class="shp4" d="M343.99 130.27C343.99 130.27 343.76 130.15 343.3 130.04C342.84 129.92 342.26 129.69 341.68 129.46C341.34 129.35 340.99 129.23 340.64 129.12C340.3 129 339.95 128.89 339.6 128.89C339.26 128.89 338.91 128.77 338.56 128.66C338.45 128.66 338.22 128.66 338.1 128.54L337.64 128.54C337.29 128.43 336.95 128.66 336.6 128.54C336.25 128.66 335.91 128.66 335.56 128.77C335.21 128.89 334.87 129 334.52 129.12C334.17 129.23 333.83 129.35 333.6 129.46C333.25 129.58 332.9 129.69 332.67 129.81C332.44 129.92 332.21 130.04 331.98 130.04C331.52 130.15 331.29 130.27 331.29 130.27C331.29 130.27 331.29 130.04 331.52 129.58C331.63 129.35 331.63 129.12 331.86 128.77C331.98 128.43 332.21 128.19 332.44 127.85C332.67 127.5 332.9 127.16 333.25 126.81C333.6 126.47 334.06 126.23 334.4 125.89C334.87 125.66 335.44 125.43 335.91 125.2C336.48 125.08 337.06 124.97 337.64 124.97C337.99 124.97 338.22 124.97 338.56 124.97C338.91 124.97 339.14 125.08 339.37 125.2C339.6 125.2 339.95 125.31 340.18 125.43C340.41 125.54 340.64 125.66 340.87 125.77C341.8 126.35 342.49 126.93 342.95 127.62C343.42 128.31 343.65 128.89 343.88 129.35C343.99 130.04 343.99 130.27 343.99 130.27Z" />
	<path id="Layer" class="shp17" d="M329.78 131.54C330.48 133.04 331.17 134.65 331.86 136.15C332.21 136.96 332.44 137.65 332.79 138.46L333.71 140.76L334.63 143.07C334.98 143.88 335.21 144.57 335.56 145.37L336.02 146.53C336.14 146.87 336.37 147.33 336.48 147.68C336.83 148.37 337.18 149.06 337.52 149.87L337.87 150.79L337.18 151.14C336.14 151.6 335.1 152.18 333.94 152.64C332.9 153.1 331.75 153.56 330.59 153.91C331.52 153.1 332.44 152.41 333.37 151.72C334.29 151.02 335.33 150.33 336.25 149.64L335.91 150.91C335.44 150.22 334.98 149.41 334.52 148.72C334.06 148.03 333.71 147.22 333.37 146.41L332.79 145.26L332.32 144.11C332.09 143.3 331.75 142.49 331.52 141.68L330.82 139.26C330.59 138.46 330.48 137.65 330.25 136.84C330.13 135 329.9 133.27 329.78 131.54Z" />
	<path id="Layer" class="shp17" d="M296.28 154.6C295.82 154.37 295.36 154.02 295.01 153.56C294.66 153.21 294.2 152.75 293.97 152.18C293.85 151.95 293.74 151.6 293.74 151.25C293.74 151.14 293.74 150.91 293.74 150.79C293.74 150.68 293.85 150.45 293.85 150.33C293.97 149.99 294.2 149.76 294.43 149.53C294.55 149.41 294.66 149.29 294.78 149.18L295.12 148.95L294.89 149.29C294.89 148.03 294.89 146.76 294.78 145.6C294.66 144.34 294.55 143.07 294.08 142.03C293.97 141.8 293.85 141.57 293.62 141.45C293.51 141.34 293.28 141.22 293.05 141.22C292.93 141.22 292.81 141.22 292.7 141.34C292.58 141.34 292.35 141.45 292.24 141.45C292 141.57 291.77 141.68 291.54 141.92C291.31 142.15 291.08 142.26 290.96 142.49C290.85 142.72 290.62 142.95 290.5 143.3C290.27 143.88 290.16 144.45 290.16 145.14C289.93 144.57 289.93 143.88 290.04 143.18C290.04 142.84 290.16 142.49 290.39 142.26C290.5 141.92 290.73 141.68 290.96 141.45L291.31 141.11L291.77 140.76C291.89 140.65 292.12 140.65 292.24 140.53C292.35 140.42 292.58 140.42 292.81 140.3C293.28 140.19 293.74 140.3 294.08 140.65C294.43 140.88 294.66 141.22 294.78 141.57C295.12 142.26 295.24 142.84 295.47 143.53C295.59 144.22 295.7 144.8 295.7 145.49C295.82 146.76 295.82 148.03 295.7 149.41L295.7 149.64L295.47 149.76C295.24 149.87 295.01 149.99 294.89 150.22C294.78 150.33 294.55 150.56 294.43 150.68C294.31 150.79 294.31 150.91 294.31 151.02C294.31 151.14 294.2 151.25 294.2 151.37C294.2 151.6 294.2 151.83 294.2 152.06C294.31 152.52 294.55 152.98 294.89 153.45C295.59 153.91 295.93 154.25 296.28 154.6Z" />
	<path id="Layer" class="shp12" d="M314.42 141.8C314.42 141.8 314.53 142.03 314.65 142.49C314.76 142.72 314.76 142.95 314.88 143.18C315 143.41 315.11 143.76 315.34 144.11C315.46 144.45 315.8 144.68 315.92 145.03C316.04 145.14 316.15 145.26 316.38 145.49C316.5 145.6 316.61 145.72 316.84 145.84C317.19 146.07 317.54 146.18 317.88 146.3C318.11 146.3 318.23 146.41 318.46 146.41C318.69 146.41 318.81 146.41 319.04 146.3L319.62 146.07L320.19 145.72C320.54 145.49 320.77 145.14 321 144.8C321.23 144.45 321.35 144.11 321.58 143.76C321.7 143.41 321.81 143.07 321.81 142.61C321.81 142.26 321.81 141.92 321.93 141.68C321.93 141.34 321.93 141.11 321.93 140.88C321.93 140.42 321.93 140.19 321.93 140.19C321.93 140.19 322.04 140.42 322.16 140.88C322.27 141.11 322.27 141.34 322.39 141.68C322.39 142.03 322.5 142.38 322.5 142.72C322.5 143.07 322.5 143.53 322.39 143.99C322.27 144.45 322.16 144.91 321.93 145.37C321.7 145.84 321.35 146.3 320.89 146.64L320.19 147.1C319.96 147.22 319.62 147.33 319.38 147.45C319.15 147.45 318.81 147.56 318.46 147.56C318.23 147.56 317.88 147.45 317.65 147.45C317.07 147.33 316.61 146.99 316.15 146.64C315.69 146.3 315.46 145.84 315.23 145.49C315 145.03 314.76 144.68 314.65 144.34C314.53 143.99 314.42 143.64 314.42 143.3C314.42 142.95 314.42 142.72 314.42 142.49C314.42 142.03 314.42 141.8 314.42 141.8Z" />
	<path id="Layer" class="shp12" d="M335.33 138.34C335.33 138.34 335.44 138.57 335.56 139.03C335.68 139.26 335.68 139.49 335.79 139.72C335.91 139.96 336.02 140.3 336.25 140.65C336.37 140.99 336.71 141.22 336.83 141.57C336.95 141.68 337.06 141.8 337.29 142.03C337.41 142.15 337.52 142.26 337.75 142.38C338.1 142.61 338.45 142.72 338.8 142.84C339.03 142.84 339.14 142.95 339.37 142.95C339.6 142.95 339.72 142.95 339.95 142.84L340.53 142.61L341.11 142.26C341.45 142.03 341.68 141.68 341.91 141.34C342.14 140.99 342.26 140.65 342.49 140.3C342.61 139.96 342.72 139.61 342.72 139.15C342.72 138.8 342.72 138.46 342.84 138.23C342.84 137.88 342.84 137.65 342.84 137.42C342.84 136.96 342.84 136.73 342.84 136.73C342.84 136.73 342.95 136.96 343.07 137.42C343.19 137.65 343.19 137.88 343.3 138.23C343.3 138.57 343.42 138.92 343.42 139.26C343.42 139.61 343.42 140.07 343.3 140.53C343.19 140.99 343.07 141.45 342.84 141.92C342.61 142.38 342.26 142.84 341.8 143.18L341.11 143.64C340.87 143.76 340.53 143.88 340.3 143.99C340.06 143.99 339.72 144.11 339.37 144.11C339.14 144.11 338.8 143.99 338.56 143.99C337.99 143.88 337.52 143.53 337.06 143.18C336.6 142.84 336.37 142.38 336.14 142.03C335.91 141.57 335.68 141.22 335.56 140.88C335.44 140.53 335.33 140.19 335.33 139.84C335.33 139.49 335.33 139.26 335.33 139.03C335.33 138.57 335.33 138.34 335.33 138.34Z" />
	<path id="Layer" class="shp17" d="M316.24 158.1C316.24 158.1 316.12 158.1 316.24 158.22C316.35 158.33 316.58 158.45 316.81 158.56C317.28 158.91 318.08 159.26 319.01 159.72C319.93 160.18 321.09 160.64 322.24 160.99C322.82 161.22 323.51 161.33 324.09 161.45C324.67 161.56 325.36 161.68 326.06 161.79C327.33 161.91 328.6 162.02 329.87 161.91C331.14 161.79 332.18 161.56 333.22 161.22C334.14 160.87 334.95 160.64 335.53 160.41C336.11 160.18 336.45 160.06 336.45 160.06C336.45 160.06 336.22 160.41 335.76 160.76C335.3 161.22 334.61 161.79 333.68 162.37C332.76 162.95 331.49 163.52 330.1 163.75C328.71 164.1 327.21 164.1 325.71 163.98C325.02 163.87 324.21 163.75 323.51 163.52C322.82 163.29 322.13 163.06 321.55 162.72C320.28 162.14 319.24 161.45 318.43 160.76C317.62 160.06 316.93 159.37 316.58 158.8C316.35 158.56 316.24 158.33 316.24 158.1C316.12 158.1 316.12 158.22 316.24 158.1Z" />
	<path id="Layer" class="shp5" d="M334.29 185.61C334.29 185.61 363.87 182.5 367.68 205.1C371.49 227.81 371.14 233.92 371.14 233.92L342.26 229.66L334.29 185.61Z" />
	<path id="Layer" class="shp5" d="M359.24 203.83C357.51 189.42 342.84 186.3 334.29 185.61C330.48 190.92 325.16 194.72 317.88 194.95C309.56 195.18 301.94 192.3 297.9 185.96C284.96 187.46 272.13 191.15 269.24 199.91C263.12 218.36 268.44 319.82 268.44 319.82C268.44 319.82 320.19 328.7 362.71 320.63C362.59 320.74 361.55 223.08 359.24 203.83Z" />
	<path id="Layer" class="shp6" d="M266.24 249.26C266.47 282.69 268.44 319.94 268.44 319.94C268.44 319.94 320.19 328.81 362.71 320.74C362.71 320.74 361.9 246.61 360.17 214.78C328.86 226.43 297.55 237.96 266.24 249.26Z" />
	<path id="Layer" class="shp18" d="M298.13 276.01C298.13 276.01 296.97 272.66 302.29 270.47C307.6 268.28 362.36 253.99 365.83 254.45C369.29 254.91 411.69 259.98 412.39 262.29C413.08 264.59 361.67 281.2 361.67 281.2L298.13 276.01Z" />
	<path id="Layer" class="shp19" d="M364.56 285.58C364.56 285.58 304.6 285.35 299.98 279.93C295.36 274.51 295.24 270.59 321.46 275.2C347.69 279.81 362.82 279.12 362.82 279.12C362.82 279.12 410.88 256.75 412.5 262.17C414 267.71 419.09 266.32 364.56 285.58Z" />
	<path id="Layer" class="shp20" d="M412.39 262.29C410.88 256.87 362.71 279.24 362.71 279.24C362.71 279.24 362.59 279.24 362.25 279.24C363.29 281.31 364.1 283.27 365.02 285.46C419.09 266.32 414 267.71 412.39 262.29Z" />
	<path id="Layer" class="shp18" d="M296.39 263.67C296.39 263.67 295.24 260.33 300.55 258.14C305.87 255.94 360.63 241.65 364.09 242.11C367.56 242.57 409.96 247.64 410.65 249.95C411.35 252.26 359.94 268.86 359.94 268.86L296.39 263.67Z" />
	<path id="Layer" class="shp19" d="M362.82 273.36C362.82 273.36 302.86 273.13 298.24 267.71C293.62 262.29 293.51 258.37 319.73 262.98C345.96 267.59 361.09 266.9 361.09 266.9C361.09 266.9 409.15 244.53 410.77 249.95C412.15 255.37 417.35 253.99 362.82 273.36Z" />
	<path id="Layer" class="shp20" d="M410.65 250.06C409.15 244.65 360.98 267.01 360.98 267.01C360.98 267.01 360.86 267.01 360.51 267.01C361.55 269.09 362.36 271.05 363.29 273.24C417.24 253.99 412.15 255.37 410.65 250.06Z" />
	<path id="Layer" class="shp18" d="M296.16 253.64C296.16 253.64 295.12 250.76 300.21 248.8C305.29 246.84 358.32 234.27 361.67 234.73C365.02 235.19 406.03 239.69 406.73 241.65C407.42 243.61 357.63 258.37 357.63 258.37L296.16 253.64Z" />
	<path id="Layer" class="shp19" d="M360.4 262.17C360.4 262.17 302.4 261.94 297.9 257.21C293.39 252.49 293.39 249.03 318.69 253.06C343.99 257.1 358.67 256.52 358.67 256.52C358.67 256.52 405.22 236.81 406.73 241.65C408.23 246.38 413.19 245.11 360.4 262.17Z" />
	<path id="Layer" class="shp20" d="M406.73 241.65C405.22 236.92 358.67 256.52 358.67 256.52C358.67 256.52 358.55 256.52 358.2 256.52C359.13 258.25 360.05 260.1 360.86 261.94C413.19 245.11 408.23 246.38 406.73 241.65Z" />
	<path id="Layer" class="shp11" d="M297.78 240.15C297.78 240.15 296.86 237.27 302.06 235.42C307.25 233.69 360.63 223.09 363.98 223.66C367.33 224.12 408.11 230.23 408.69 232.19C409.27 234.15 359.01 246.95 359.01 246.95L297.78 240.15Z" />
	<path id="Layer" class="shp19" d="M361.67 251.1C361.67 251.1 303.67 248.68 299.4 243.84C295.12 238.88 295.12 235.54 320.31 240.49C345.5 245.45 360.17 245.45 360.17 245.45C360.17 245.45 407.42 227.58 408.69 232.31C410.08 237.03 415.04 236 361.67 251.1Z" />
	<path id="Layer" class="shp20" d="M408.69 232.31C407.42 227.47 360.17 245.45 360.17 245.45C360.17 245.45 360.05 245.45 359.7 245.45C360.63 247.3 361.44 249.14 362.13 250.99C414.93 236 409.96 237.04 408.69 232.31Z" />
	<path id="Layer" class="shp15" d="M267.63 242.34L296.16 235.42C296.16 235.42 302.29 276.93 303.9 279.24C305.52 281.54 353.24 283.85 353.24 283.85L367.1 284.65C367.1 284.65 308.52 309.21 291.66 299.3C274.56 289.15 267.63 242.34 267.63 242.34Z" />
	<path id="Layer" class="shp16" d="M270.4 247.3C279.18 244.65 287.73 241.42 296.74 239.46C296.39 236.92 296.16 235.42 296.16 235.42L267.63 242.34C267.63 242.34 267.98 244.42 268.55 247.88C269.25 247.64 269.82 247.41 270.4 247.3Z" />
	<path id="Layer" class="shp15" d="M361.79 288.46C361.79 288.46 383.5 282.69 383.5 278.31C383.5 273.93 375.65 258.14 381.19 279.24C381.19 279.24 369.64 250.64 378.88 280.62C378.88 280.62 369.87 257.33 376 281.2C376 281.2 366.75 265.05 373.45 282.35L365.13 285.46L345.15 285.23L334.52 295.61L361.79 288.46Z" />
	<path id="Layer" class="shp15" d="M412.62 267.36C412.62 267.36 401.06 238.77 410.31 268.74C410.31 268.74 401.3 245.45 407.42 269.32C407.42 269.32 398.18 253.18 404.07 270.59L397.71 273.59C400.02 273.82 403.03 273.7 405.45 272.89C412.85 271.39 414.93 268.86 414.93 266.55C414.93 262.17 407.07 246.38 412.62 267.36Z" />
	<path id="Layer" class="shp13" d="M442.08 570.83C442.08 574.98 438.73 578.43 434.57 578.55C430.41 578.55 426.94 575.21 426.83 571.06L426.48 546.61C426.48 542.46 429.83 539 433.99 538.89C438.15 538.89 441.62 542.23 441.73 546.38L442.08 570.83Z" />
	<path id="Layer" class="shp13" d="M335.68 572.1C335.68 576.25 332.32 579.7 328.17 579.82C324.01 579.82 320.54 576.48 320.43 572.33L320.08 547.88C320.08 543.73 323.43 540.27 327.59 540.16C331.75 540.16 335.21 543.5 335.33 547.65L335.68 572.1Z" />
	<path id="Layer" class="shp10" d="M433.53 553.41C433.64 562.87 426.02 570.6 416.55 570.71L345.38 571.52C335.91 571.63 328.17 564.02 328.05 554.57L320.43 392.92C320.31 383.47 327.94 375.74 337.41 375.63L420.01 374.59C429.49 374.47 437.23 382.08 437.34 391.54L433.53 553.41Z" />
	<path id="Layer" class="shp21" d="M436.88 407.79L437.23 391.77C437.11 382.31 429.37 374.7 419.9 374.82L337.29 375.86C327.82 375.97 320.19 383.7 320.31 393.15L321.12 409.18L436.88 407.79Z" />
	<path id="Layer" class="shp10" d="M450.97 387.73C450.97 390.38 448.89 392.46 446.24 392.57L311.3 394.19C308.64 394.19 306.56 392.11 306.45 389.46L306.21 372.4C306.21 369.75 308.3 367.67 310.95 367.55L445.89 365.94C448.55 365.94 450.63 368.02 450.74 370.67L450.97 387.73Z" />
	<path id="Layer" class="shp11" d="M379.35 435.12L395.06 425.67L391.25 435.46L379.35 435.12Z" />
	<path id="Layer" class="shp11" d="M373.45 420.25C373.45 420.25 374.72 420.25 376.69 423.24C378.65 426.24 383.04 434.31 383.04 434.31L391.01 430.74L392.86 427.63C392.86 427.63 389.4 420.71 386.62 420.25L373.45 420.25Z" />
	<path id="Layer" class="shp11" d="M369.06 422.32C369.06 422.32 371.49 419.67 373.45 421.05C375.42 422.44 378.88 428.2 378.88 428.2L373.22 438.12L363.06 432.47L369.06 422.32Z" />
	<path id="Layer" class="shp11" d="M386.51 447.46L387.32 465.67L380.5 457.72L386.51 447.46Z" />
	<path id="Layer" class="shp11" d="M402.45 449.3C402.45 449.3 401.87 450.45 398.29 450.8C394.71 451.15 385.47 451.15 385.47 451.15L384.77 459.91L386.62 463.02C386.62 463.02 394.36 463.37 396.1 461.06L402.45 449.3Z" />
	<path id="Layer" class="shp11" d="M402.57 444.46C402.57 444.46 403.84 447.8 401.64 448.95C399.56 449.99 392.75 450.22 392.75 450.22L386.62 440.54L396.44 434.2L402.57 444.46Z" />
	<path id="Layer" class="shp11" d="M372.76 447.23L356.58 438.69L366.87 436.85L372.76 447.23Z" />
	<path id="Layer" class="shp11" d="M363.06 460.02C363.06 460.02 362.36 458.99 363.87 455.76C365.37 452.53 369.99 444.57 369.99 444.57L362.82 439.62L359.24 439.73C359.24 439.73 355.08 446.3 356.12 448.84L363.06 460.02Z" />
	<path id="Layer" class="shp11" d="M367.21 462.56C367.21 462.56 363.63 461.87 363.87 459.56C363.98 457.14 367.21 451.26 367.21 451.26L378.65 450.92L379.12 462.56L367.21 462.56Z" />
</svg>